<svg width="179" height="31" viewBox="0 0 179 31" fill="none" xmlns="http://www.w3.org/2000/svg">
<path fill-rule="evenodd" clip-rule="evenodd" d="M4.63124 7.04624C6.7575 4.18623 10.1624 2.33332 14 2.33332C17.8602 2.33332 21.2824 4.20809 23.406 7.09679C23.3157 7.18975 23.2333 7.28607 23.1589 7.38228C22.7698 7.88603 22.4771 8.53491 22.2427 9.19383C21.7705 10.5191 21.4103 12.2501 21.0768 13.8711L21.0472 14.0169C20.7144 15.6349 20.4051 17.1396 20.0312 18.2567C19.8632 18.7586 19.7039 19.1133 19.5626 19.3406C19.4152 19.1115 19.2479 18.7524 19.0709 18.2434C18.6709 17.0942 18.3346 15.5312 17.978 13.8623L17.9664 13.8076V13.8076C17.6238 12.2046 17.2603 10.5037 16.8071 9.20174C16.5794 8.54773 16.3 7.90536 15.9346 7.40627C15.576 6.91647 14.9791 6.3637 14.1061 6.3637C13.2385 6.3637 12.6388 6.91047 12.2751 7.39478C11.9026 7.89062 11.6122 8.53035 11.373 9.18469C10.8913 10.5023 10.4975 12.226 10.1309 13.8492L10.0931 14.0169C9.73013 15.6248 9.39084 17.1281 9.0057 18.2473C8.85866 18.6747 8.71993 18.9999 8.59434 19.2322C8.47161 19.001 8.33634 18.678 8.19331 18.2542C7.82382 17.1588 7.50014 15.6976 7.1525 14.1282L7.09166 13.8535C6.73145 12.2293 6.34068 10.5026 5.85211 9.18082C5.60936 8.52403 5.31245 7.88111 4.92822 7.38293C4.84122 7.27017 4.74233 7.15572 4.63124 7.04624ZM3.34436 9.24228C3.44563 9.44225 3.55275 9.6901 3.66352 9.98979C4.08641 11.1339 4.4447 12.6951 4.81365 14.3587L4.88544 14.6829C5.22137 16.2009 5.57081 17.78 5.98239 18.9999C6.2013 19.6488 6.46565 20.2843 6.80566 20.7782C7.12717 21.2453 7.70397 21.8487 8.59091 21.8487C9.47527 21.8487 10.0534 21.2482 10.3772 20.7832C10.7201 20.2904 10.9888 19.6556 11.2121 19.0064C11.6402 17.7623 12.0047 16.1462 12.3536 14.5996V14.5995L12.407 14.3631C12.7829 12.6984 13.1447 11.1341 13.5645 9.98589C13.759 9.45389 13.9411 9.08327 14.0996 8.85335C14.2498 9.08129 14.4214 9.44601 14.6035 9.96887C15.0035 11.118 15.3396 12.681 15.6962 14.3499L15.7079 14.4046C16.0505 16.0077 16.414 17.7086 16.8672 19.0104C17.0949 19.6647 17.3742 20.307 17.7396 20.806C18.0983 21.2959 18.6952 21.8487 19.568 21.8487C20.4456 21.8487 21.0403 21.2908 21.3947 20.7966C21.7546 20.2951 22.0252 19.6506 22.2437 18.9974C22.6639 17.7427 22.9981 16.1147 23.3164 14.566V14.566L23.3623 14.3411C23.7052 12.6742 24.0343 11.1174 24.4408 9.97674C24.5289 9.72861 24.6156 9.51704 24.6984 9.33932C25.3212 10.7668 25.6666 12.3431 25.6666 14C25.6666 20.4433 20.4434 25.6668 14 25.6668C7.55668 25.6668 2.33332 20.4433 2.33332 14C2.33332 12.3054 2.69461 10.6952 3.34436 9.24228ZM14 0C6.26803 0 0 6.26803 0 14C0 21.732 6.26803 28 14 28C21.7322 28 27.9998 21.732 27.9998 14C27.9998 6.26803 21.7322 0 14 0ZM14.2667 8.65803C14.2667 8.65832 14.264 8.66049 14.2585 8.66367C14.264 8.65933 14.2667 8.65775 14.2667 8.65803ZM13.9442 8.65962C13.9388 8.6563 13.9361 8.65402 13.9361 8.65373C13.9361 8.65345 13.9388 8.65511 13.9442 8.65962ZM19.3906 19.5621C19.3906 19.5621 19.3932 19.5595 19.3982 19.5563C19.3932 19.5606 19.3906 19.5624 19.3906 19.5621ZM19.7299 19.5527C19.7353 19.5559 19.7382 19.5581 19.7382 19.5585C19.7382 19.5588 19.7353 19.557 19.7299 19.5527ZM8.35181 19.583C8.35177 19.5827 8.35513 19.5794 8.36185 19.5747C8.3552 19.5809 8.35181 19.5834 8.35181 19.583ZM8.82434 19.5769C8.83102 19.5816 8.83435 19.5848 8.83435 19.5852C8.83431 19.5855 8.83095 19.5834 8.82434 19.5769Z" fill="white"/>
<path d="M42.5739 24C42.4179 24 42.2879 23.948 42.1839 23.844C42.0799 23.74 42.0279 23.61 42.0279 23.454V6.528C42.0279 6.216 42.1319 5.956 42.3399 5.748C42.5652 5.52267 42.8339 5.41 43.1459 5.41H48.0079C49.0652 5.41 50.0359 5.66133 50.9199 6.164C51.8039 6.66667 52.5059 7.35133 53.0259 8.218C53.5459 9.08467 53.8059 10.0293 53.8059 11.052C53.8059 12.3 53.4332 13.418 52.6879 14.406C51.9425 15.3767 50.9719 16.044 49.7759 16.408L54.0919 23.09C54.1612 23.2113 54.1959 23.3327 54.1959 23.454C54.1959 23.61 54.1352 23.74 54.0139 23.844C53.9099 23.948 53.7712 24 53.5979 24H51.4659C51.1712 24 50.9459 23.8787 50.7899 23.636L46.4739 16.694H45.1999V23.454C45.1999 23.61 45.1479 23.74 45.0439 23.844C44.9399 23.948 44.8099 24 44.6539 24H42.5739ZM47.8519 13.704C48.6492 13.704 49.2992 13.4613 49.8019 12.976C50.3219 12.4733 50.5819 11.8407 50.5819 11.078C50.5819 10.298 50.3219 9.65667 49.8019 9.154C49.2992 8.65133 48.6492 8.4 47.8519 8.4H45.1999V13.704H47.8519ZM63.758 24C63.446 24 63.1773 23.896 62.952 23.688C62.744 23.4627 62.64 23.194 62.64 22.882V6.528C62.64 6.216 62.744 5.956 62.952 5.748C63.1773 5.52267 63.446 5.41 63.758 5.41H72.624C72.78 5.41 72.91 5.462 73.014 5.566C73.118 5.67 73.17 5.8 73.17 5.956V7.906C73.17 8.062 73.118 8.192 73.014 8.296C72.91 8.4 72.78 8.452 72.624 8.452H65.812V12.872H70.882C71.038 12.872 71.168 12.924 71.272 13.028C71.376 13.132 71.428 13.262 71.428 13.418V15.264C71.428 15.42 71.376 15.55 71.272 15.654C71.168 15.758 71.038 15.81 70.882 15.81H65.812V20.958H72.624C72.78 20.958 72.91 21.01 73.014 21.114C73.118 21.218 73.17 21.348 73.17 21.504V23.454C73.17 23.61 73.118 23.74 73.014 23.844C72.91 23.948 72.78 24 72.624 24H63.758ZM87.7414 24.338C86.528 24.338 85.4014 24.0347 84.3614 23.428C83.3387 22.804 82.524 21.972 81.9174 20.932C81.3107 19.8747 81.0074 18.722 81.0074 17.474V11.936C81.0074 10.688 81.3107 9.544 81.9174 8.504C82.524 7.44667 83.3387 6.61467 84.3614 6.008C85.4014 5.384 86.528 5.072 87.7414 5.072C88.7987 5.072 89.7867 5.27133 90.7054 5.67C91.624 6.05133 92.404 6.61467 93.0454 7.36C93.1494 7.48133 93.2014 7.62867 93.2014 7.802C93.2014 7.97533 93.132 8.14867 92.9934 8.322L91.8494 9.518C91.7107 9.65667 91.572 9.726 91.4334 9.726C91.26 9.726 91.104 9.648 90.9654 9.492C90.1334 8.57333 89.0674 8.114 87.7674 8.114C87.126 8.114 86.528 8.28733 85.9734 8.634C85.436 8.98067 85.0027 9.44867 84.6734 10.038C84.344 10.6273 84.1794 11.26 84.1794 11.936V17.474C84.1794 18.15 84.344 18.7827 84.6734 19.372C85.0027 19.9613 85.436 20.4293 85.9734 20.776C86.528 21.1227 87.126 21.296 87.7674 21.296C89.0674 21.296 90.1334 20.8367 90.9654 19.918C91.104 19.762 91.2514 19.684 91.4074 19.684C91.5634 19.684 91.7107 19.7533 91.8494 19.892L92.9934 21.088C93.1494 21.244 93.2274 21.4173 93.2274 21.608C93.2274 21.7467 93.1754 21.8853 93.0714 22.024C92.4127 22.7693 91.624 23.3413 90.7054 23.74C89.7867 24.1387 88.7987 24.338 87.7414 24.338ZM107.951 24.338C106.703 24.338 105.55 24.0347 104.493 23.428C103.436 22.804 102.595 21.972 101.971 20.932C101.364 19.8747 101.061 18.722 101.061 17.474V11.936C101.061 10.688 101.364 9.544 101.971 8.504C102.595 7.44667 103.436 6.61467 104.493 6.008C105.55 5.384 106.703 5.072 107.951 5.072C109.199 5.072 110.352 5.384 111.409 6.008C112.466 6.61467 113.298 7.44667 113.905 8.504C114.529 9.544 114.841 10.688 114.841 11.936V17.474C114.841 18.722 114.529 19.8747 113.905 20.932C113.298 21.972 112.466 22.804 111.409 23.428C110.352 24.0347 109.199 24.338 107.951 24.338ZM107.951 21.296C108.61 21.296 109.225 21.1227 109.797 20.776C110.369 20.4293 110.82 19.9613 111.149 19.372C111.496 18.7827 111.669 18.15 111.669 17.474V11.936C111.669 11.26 111.496 10.6273 111.149 10.038C110.82 9.44867 110.369 8.98067 109.797 8.634C109.225 8.28733 108.61 8.114 107.951 8.114C107.292 8.114 106.677 8.28733 106.105 8.634C105.533 8.98067 105.074 9.44867 104.727 10.038C104.398 10.6273 104.233 11.26 104.233 11.936V17.474C104.233 18.15 104.398 18.7827 104.727 19.372C105.074 19.9613 105.533 20.4293 106.105 20.776C106.677 21.1227 107.292 21.296 107.951 21.296ZM124.261 24C124.105 24 123.975 23.948 123.871 23.844C123.767 23.74 123.715 23.61 123.715 23.454V6.528C123.715 6.216 123.819 5.956 124.027 5.748C124.252 5.52267 124.521 5.41 124.833 5.41H129.695C130.752 5.41 131.723 5.66133 132.607 6.164C133.491 6.66667 134.193 7.35133 134.713 8.218C135.233 9.08467 135.493 10.0293 135.493 11.052C135.493 12.3 135.12 13.418 134.375 14.406C133.629 15.3767 132.659 16.044 131.463 16.408L135.779 23.09C135.848 23.2113 135.883 23.3327 135.883 23.454C135.883 23.61 135.822 23.74 135.701 23.844C135.597 23.948 135.458 24 135.285 24H133.153C132.858 24 132.633 23.8787 132.477 23.636L128.161 16.694H126.887V23.454C126.887 23.61 126.835 23.74 126.731 23.844C126.627 23.948 126.497 24 126.341 24H124.261ZM129.539 13.704C130.336 13.704 130.986 13.4613 131.489 12.976C132.009 12.4733 132.269 11.8407 132.269 11.078C132.269 10.298 132.009 9.65667 131.489 9.154C130.986 8.65133 130.336 8.4 129.539 8.4H126.887V13.704H129.539ZM145.445 24C145.133 24 144.864 23.896 144.639 23.688C144.431 23.4627 144.327 23.194 144.327 22.882V6.528C144.327 6.216 144.431 5.956 144.639 5.748C144.864 5.52267 145.133 5.41 145.445 5.41H150.541C151.875 5.41 153.089 5.73067 154.181 6.372C155.273 7.01333 156.131 7.88867 156.755 8.998C157.396 10.1073 157.717 11.3293 157.717 12.664V16.746C157.717 18.0807 157.396 19.3027 156.755 20.412C156.131 21.5213 155.273 22.3967 154.181 23.038C153.089 23.6793 151.875 24 150.541 24H145.445ZM150.411 20.958C151.156 20.958 151.841 20.776 152.465 20.412C153.106 20.0307 153.609 19.528 153.973 18.904C154.354 18.2627 154.545 17.5607 154.545 16.798V12.586C154.545 11.8407 154.354 11.156 153.973 10.532C153.609 9.89067 153.106 9.388 152.465 9.024C151.841 8.64267 151.156 8.452 150.411 8.452H147.499V20.958H150.411ZM171.093 24.312C170.157 24.312 169.229 24.1647 168.311 23.87C167.409 23.558 166.569 23.1333 165.789 22.596C165.702 22.544 165.641 22.4573 165.607 22.336C165.572 22.1973 165.581 22.076 165.633 21.972L166.543 20.334C166.647 20.126 166.811 20.022 167.037 20.022C167.175 20.022 167.305 20.0567 167.427 20.126C168.727 20.9407 169.94 21.348 171.067 21.348C171.985 21.348 172.705 21.1313 173.225 20.698C173.762 20.2473 174.031 19.6667 174.031 18.956C174.031 18.488 173.901 18.098 173.641 17.786C173.381 17.4567 173.034 17.1793 172.601 16.954C172.167 16.7287 171.535 16.4513 170.703 16.122L169.949 15.81C168.77 15.3073 167.773 14.666 166.959 13.886C166.161 13.106 165.763 11.962 165.763 10.454C165.763 9.39667 165.997 8.46067 166.465 7.646C166.95 6.83133 167.617 6.19867 168.467 5.748C169.316 5.29733 170.295 5.072 171.405 5.072C172.323 5.072 173.233 5.228 174.135 5.54C175.053 5.83467 175.877 6.25067 176.605 6.788C176.691 6.84 176.752 6.93533 176.787 7.074C176.821 7.19533 176.813 7.308 176.761 7.412L175.903 9.05C175.799 9.258 175.634 9.362 175.409 9.362C175.27 9.362 175.14 9.32733 175.019 9.258C174.343 8.82467 173.693 8.51267 173.069 8.322C172.462 8.13133 171.916 8.036 171.431 8.036C170.651 8.036 170.035 8.25267 169.585 8.686C169.134 9.102 168.909 9.63933 168.909 10.298C168.909 10.974 169.151 11.5373 169.637 11.988C170.139 12.4213 170.937 12.8633 172.029 13.314C172.185 13.366 172.774 13.6087 173.797 14.042C174.837 14.458 175.66 15.0733 176.267 15.888C176.873 16.7027 177.177 17.6647 177.177 18.774C177.177 19.8487 176.917 20.8107 176.397 21.66C175.894 22.492 175.183 23.142 174.265 23.61C173.346 24.078 172.289 24.312 171.093 24.312Z" fill="white"/>
</svg>
